# xmcd
#
# Track frame offsets: 
#        150
#        12632
#        17187
#        21877
#        28840
#        42590
#        52457
#        65855
#        79070
#        85470
#        94332
#        106152
#        118937
#        128075
#        134280
#        146890
#        156022
#        172687
#        185665
#        202650
#        206937
#
# Disc length: 2963 seconds
#
# Revision: 4
# Processed by: cddbd v1.5.2PL0 Copyright (c) Steve Scherf et al.
# Submitted via: ExactAudioCopyFreeDBPlugin 1.0
#
DISCID=3c0b9115
DTITLE=Original Cast of "Smokey Joe's Café" - Smokey Joe's Café:  The 
DTITLE=Songs of Leiber and Stoller
DYEAR=1995
DGENRE=Rhythm and Blues
TTITLE0=Baby, That is Rock and Roll
TTITLE1=Yakety Yak
TTITLE2=Charlie Brown
TTITLE3=Stay a While
TTITLE4=Pearl's a Singer
TTITLE5=Teach Me How to Shimmy
TTITLE6=You're the Boss
TTITLE7=Loving You
TTITLE8=Treat Me Nice
TTITLE9=Hound Dog
TTITLE10=Little Egypt
TTITLE11=I'm a Woman
TTITLE12=There Goes My Baby
TTITLE13=Love Potion #9
TTITLE14=Some Cats Know
TTITLE15=Jailhouse Rock
TTITLE16=Fools Fall in Love (Reprise)
TTITLE17=Spanish Harlem
TTITLE18=I (Who Have Nothing)
TTITLE19=Neighborhood (Reprise #2)
TTITLE20=Stand By Me
EXTD=YEAR: 1995
EXTT0=Company
EXTT1=Company
EXTT2=Company
EXTT3=Louis and David
EXTT4=Pattie
EXTT5=Michael and DeLee with Adrian and Victor
EXTT6=Fred and Brenda
EXTT7=Ken and Company
EXTT8=Victor
EXTT9=B.J.
EXTT10=Fred with Adrian, Ken, Michael, Victor
EXTT11=B.J., Brenda, DeLee, Pattie
EXTT12=Adrian with Fred, Ken, Michael, Victor
EXTT13=Adrian with Fred, Ken, Michael, Victor
EXTT14=Brenda
EXTT15=Michael and Company
EXTT16=B.J.
EXTT17=Ken and Brenda
EXTT18=Victor
EXTT19=Pattie
EXTT20=Adrian and Company
PLAYORDER=
